<?xml version="1.0" encoding="utf-8"?>
<!-- Generator: Adobe Illustrator 19.2.1, SVG Export Plug-In . SVG Version: 6.00 Build 0)  -->
<svg version="1.1" id="Layer_1" xmlns="http://www.w3.org/2000/svg" xmlns:xlink="http://www.w3.org/1999/xlink" x="0px" y="0px"
	 viewBox="0 0 351.4 474" style="enable-background:new 0 0 351.4 474;" xml:space="preserve">
<style type="text/css">
	.st0{fill:#FFFFFF;stroke:#4C4C4C;stroke-width:2;stroke-miterlimit:10;}
	.st1{fill:#4C4C4C;}
	.st2{fill:none;stroke:#4C4C4C;stroke-width:2;stroke-miterlimit:10;}
	.st3{fill:none;stroke:#4C4C4C;stroke-width:4;stroke-miterlimit:10;}
	.st4{fill:#FFFFFF;}
	.st5{font-family:'UTM-Cookies';}
	.st6{font-size:24.1475px;}
	.st7{letter-spacing:1;}
</style>
<path class="st0" d="M233.6,465.7H82.9c-20.1,0-36.4-16.3-36.4-36.4V44.6c0-20.1,16.3-36.4,36.4-36.4h150.7
	c20.1,0,36.4,16.3,36.4,36.4v384.8C269.9,449.4,253.6,465.7,233.6,465.7z"/>
<path class="st1" d="M129.9,45.7L129.9,45.7c-1.7,0-3.1-1.4-3.1-3.1l0,0c0-1.7,1.4-3.1,3.1-3.1l0,0c1.7,0,3.1,1.4,3.1,3.1l0,0
	C133.1,44.3,131.6,45.7,129.9,45.7z"/>
<path class="st1" d="M176.2,45.7h-35.8c-1.5,0-2.7-1.2-2.7-2.7v-0.8c0-1.5,1.2-2.7,2.7-2.7h35.8c1.5,0,2.7,1.2,2.7,2.7V43
	C178.9,44.4,177.7,45.7,176.2,45.7z"/>
<path class="st1" d="M158.2,33.7L158.2,33.7c-2.5,0-4.6-2.1-4.6-4.6l0,0c0-2.5,2.1-4.6,4.6-4.6l0,0c2.5,0,4.6,2.1,4.6,4.6l0,0
	C162.8,31.6,160.8,33.7,158.2,33.7z"/>
<circle class="st2" cx="158.2" cy="434.8" r="14.7"/>
<path class="st0" d="M251,410.1H65.5c-3.7,0-6.8-3-6.8-6.8V68.7c0-3.7,3-6.8,6.8-6.8H251c3.7,0,6.8,3,6.8,6.8v334.7
	C257.7,407.1,254.7,410.1,251,410.1z"/>
<path class="st3" d="M182.9,160.3c0-0.1,0.1-0.2,0.1-0.3c0.4-0.8,1-1.3,1.6-1.8c8.5-7.1,18.5-11.8,29.1-14.5
	c9.6-2.5,19.6-3.5,29.5-3.5c44,0,54,22.2,54,22.2s7.4,72.5-48.4,72.5c-10.1,0-20.3-0.8-30.1-3.5c-7.4-2.1-14.5-5.3-20.3-10.4
	c-9.2-8.1-13.6-19.8-15.3-31.7c-1.3-9-1.2-18.1-0.5-27.2C182.6,161.5,182.6,160.9,182.9,160.3z"/>
<path class="st3" d="M134.7,160.3c0-0.1-0.1-0.2-0.1-0.3c-0.4-0.8-1-1.3-1.6-1.8c-8.5-7.1-18.5-11.8-29.1-14.5
	c-9.6-2.5-19.6-3.5-29.5-3.5c-44,0-54,22.2-54,22.2s-7.4,72.5,48.4,72.5c10.1,0,20.3-0.8,30.1-3.5c7.4-2.1,14.5-5.3,20.3-10.4
	c9.2-8.1,13.6-19.8,15.3-31.7c1.3-9,1.2-18.1,0.5-27.2C135,161.5,135,160.9,134.7,160.3z"/>
<path class="st3" d="M134.7,160.3c0,0,31.5-5.7,48.3,1"/>
<path class="st1" d="M36.2,148.1c0,0-21.9,4-28.6,3.7c0,0-5.1,4.8,0,8.5s10.2,3.2,10.2,3.2L36.2,148.1z"/>
<path class="st1" d="M279.4,147.1c0,0,21.9,4,28.6,3.7c0,0,5.1,4.8,0,8.5s-10.2,3.2-10.2,3.2L279.4,147.1z"/>
<path class="st1" d="M142.8,211.4c0.4-1.3,1.7-2.5,2.6-3.5c1.9-2,4-3.9,6.5-5.1c4.8-2.5,10.3-2.7,15.3-0.8c3.6,1.4,6.9,3.8,9.2,6.9
	c0.8,1.1,1.9,2.6,1.9,4.1c0,1.7,0,3.8-1,5.3c-0.4,0.6-1,1.1-1.7,1.2c-1,0.1-1.8-0.5-2.6-1c-1.2-0.7-2.4-1.6-3.5-2.4
	c-2.2-1.5-4.7-3.1-7.5-3.2c-0.2,0-0.4,0-0.6,0c-2,0.1-3.8,0.9-5.5,1.7c-2.2,1-4.5,2.2-6.5,3.6c-0.7,0.5-1.5,1-2.4,1.2
	c-2.6,0.7-4-1.4-4.4-3.7c-0.2-1.2-0.1-2.4-0.1-3.6C142.6,212,142.7,211.7,142.8,211.4z"/>
<circle class="st1" cx="228.1" cy="177.5" r="13.2"/>
<circle class="st4" cx="224.3" cy="173.2" r="3.2"/>
<circle class="st1" cx="93.7" cy="177.5" r="13.2"/>
<circle class="st4" cx="89.9" cy="173.2" r="3.2"/>
<path class="st1" d="M156.6,420.1c-4.2,0-5.7,1.5-8.6,4.1c0.7-0.2,17.7-5.3,24.7,14.5c0.1-0.8,0.2-1.5,0.2-2.3
	C172.9,427.4,165.6,420.1,156.6,420.1z"/>
<path class="st1" d="M346,304.6c0,22.4-34,40.6-76,40.6s-76-18.2-76-40.6c0-8.4,4.8-16.3,13.1-22.8c-9.5-5-13.9-22-13.9-22
	c16.2,11.6,31,12.3,31,12.3c12.8-5.1,28.6-8.2,45.8-8.2C312,264,346,282.2,346,304.6z"/>
<text transform="matrix(1 0 0 1 217.5233 312.2266)" class="st4 st5 st6 st7">Oopsss!!</text>
</svg>
